<svg width="20" height="20" viewBox="0 0 20 20" fill="none" xmlns="http://www.w3.org/2000/svg">
<path d="M10.0003 1.6665C5.40033 1.6665 1.66699 5.39984 1.66699 9.99984C1.66699 14.5998 5.40033 18.3332 10.0003 18.3332C14.6003 18.3332 18.3337 14.5998 18.3337 9.99984C18.3337 5.39984 14.6003 1.6665 10.0003 1.6665ZM10.0003 16.6665C6.32533 16.6665 3.33366 13.6748 3.33366 9.99984C3.33366 6.32484 6.32533 3.33317 10.0003 3.33317C13.6753 3.33317 16.667 6.32484 16.667 9.99984C16.667 13.6748 13.6753 16.6665 10.0003 16.6665ZM5.41699 14.5832L11.6753 11.6748L14.5837 5.4165L8.32533 8.32484L5.41699 14.5832ZM10.0003 9.08317C10.5087 9.08317 10.917 9.4915 10.917 9.99984C10.917 10.5082 10.5087 10.9165 10.0003 10.9165C9.49199 10.9165 9.08366 10.5082 9.08366 9.99984C9.08366 9.4915 9.49199 9.08317 10.0003 9.08317Z" fill="black" fill-opacity="0.6"/>
</svg>
