<svg width="20" height="20" viewBox="0 0 20 20" fill="none" xmlns="http://www.w3.org/2000/svg">
<path d="M9.16699 14.9998H10.8337V13.3332H9.16699V14.9998ZM10.0003 1.6665C5.40033 1.6665 1.66699 5.39984 1.66699 9.99984C1.66699 14.5998 5.40033 18.3332 10.0003 18.3332C14.6003 18.3332 18.3337 14.5998 18.3337 9.99984C18.3337 5.39984 14.6003 1.6665 10.0003 1.6665ZM10.0003 16.6665C6.32533 16.6665 3.33366 13.6748 3.33366 9.99984C3.33366 6.32484 6.32533 3.33317 10.0003 3.33317C13.6753 3.33317 16.667 6.32484 16.667 9.99984C16.667 13.6748 13.6753 16.6665 10.0003 16.6665ZM10.0003 4.99984C8.15866 4.99984 6.66699 6.4915 6.66699 8.33317H8.33366C8.33366 7.4165 9.08366 6.6665 10.0003 6.6665C10.917 6.6665 11.667 7.4165 11.667 8.33317C11.667 9.99984 9.16699 9.7915 9.16699 12.4998H10.8337C10.8337 10.6248 13.3337 10.4165 13.3337 8.33317C13.3337 6.4915 11.842 4.99984 10.0003 4.99984Z" fill="black" fill-opacity="0.56"/>
</svg>
