<svg width="20" height="20" viewBox="0 0 20 20" fill="none" xmlns="http://www.w3.org/2000/svg">
<path d="M13.958 3.33317V16.6665C14.8747 16.6665 15.6247 15.9165 15.6247 14.9998V4.99984C15.6247 4.08317 14.8747 3.33317 13.958 3.33317Z" fill="black" fill-opacity="0.6"/>
<path d="M10.6247 1.6665H3.12467C2.20801 1.6665 1.45801 2.4165 1.45801 3.33317V16.6665C1.45801 17.5832 2.20801 18.3332 3.12467 18.3332H10.6247C11.5413 18.3332 12.2913 17.5832 12.2913 16.6665V3.33317C12.2913 2.4165 11.5413 1.6665 10.6247 1.6665ZM10.6247 16.6665H3.12467V3.33317H10.6247V16.6665Z" fill="black" fill-opacity="0.6"/>
<path d="M17.2913 4.99984V14.9998C17.983 14.9998 18.5413 14.4415 18.5413 13.7498V6.24984C18.5413 5.55817 17.983 4.99984 17.2913 4.99984Z" fill="black" fill-opacity="0.6"/>
</svg>
